<svg width="12" height="12" viewBox="0 0 12 12" fill="none" xmlns="http://www.w3.org/2000/svg">
<g clip-path="url(#clip0)">
<path d="M6.65227 0.776271C6.55881 0.815258 6.49782 0.906234 6.49782 1.00719L6.49782 3.74577L0.249924 3.74577C0.11197 3.74577 -3.22832e-07 3.85774 -3.16802e-07 3.99569L-1.42015e-07 7.99437C-1.35985e-07 8.13232 0.11197 8.24429 0.249924 8.24429L6.49785 8.24429L6.49785 10.9934C6.49785 11.0943 6.55883 11.1853 6.6518 11.2243C6.74526 11.2628 6.85274 11.2418 6.92422 11.1703L11.9265 6.18447C11.9735 6.13749 12 6.074 12 6.00753C12 5.94106 11.9735 5.87756 11.927 5.83059L6.92471 0.830252C6.8532 0.758768 6.74575 0.737283 6.65227 0.776271Z" fill="#5DC366"/>
</g>
<defs>
<clipPath id="clip0">
<rect width="12" height="12" fill="white" transform="translate(0 12) rotate(-90)"/>
</clipPath>
</defs>
</svg>
